<svg xmlns="http://www.w3.org/2000/svg" viewBox="0 0 138 88"><g fill="none" fill-rule="evenodd"><path fill="#CCC" fill-rule="nonzero" d="M8 4a4 4 0 0 0-4 4v72a4 4 0 0 0 4 4h122a4 4 0 0 0 4-4V8a4 4 0 0 0-4-4H8zm0-4h122a8 8 0 0 1 8 8v72a8 8 0 0 1-8 8H8a8 8 0 0 1-8-8V8a8 8 0 0 1 8-8z"/><path d="M27 9h84.677v70H27z"/><path fill="#231F20" fill-rule="nonzero" d="M48.32 69.53v-3.467a2.061 2.061 0 0 0-.588-1.589 2.047 2.047 0 0 0-1.578-.607 2.13 2.13 0 0 0-1.935.983 2.02 2.02 0 0 0-1.82-.983 1.818 1.818 0 0 0-1.614.82v-.681h-1.198v5.525h1.21v-3.04a1.297 1.297 0 0 1 .33-1.052c.26-.284.634-.437 1.018-.416.795 0 1.198.52 1.198 1.456v3.075h1.21V66.49a1.294 1.294 0 0 1 1.348-1.468c.818 0 1.21.52 1.21 1.456v3.075l1.209-.023zm17.897-5.524h-1.97V62.33h-1.21v1.676h-1.094v1.098h1.118v2.543c0 1.283.495 2.046 1.912 2.046a2.804 2.804 0 0 0 1.498-.428l-.346-1.029c-.321.193-.686.3-1.06.312-.576 0-.795-.37-.795-.924v-2.52h1.959l-.012-1.098zm10.22-.139a1.623 1.623 0 0 0-1.452.81v-.671h-1.187v5.525h1.198v-3.098c0-.913.392-1.421 1.152-1.421.257-.004.511.043.75.138l.368-1.156a2.556 2.556 0 0 0-.853-.15l.023.023zm-15.45.578a4.108 4.108 0 0 0-2.247-.578c-1.394 0-2.304.67-2.304 1.769 0 .901.668 1.456 1.901 1.63l.576.08c.657.093.968.266.968.578 0 .428-.438.67-1.256.67a2.926 2.926 0 0 1-1.832-.577l-.576.936c.698.489 1.534.74 2.385.716 1.59 0 2.512-.75 2.512-1.803 0-1.051-.726-1.479-1.924-1.652l-.576-.081c-.519-.07-.934-.174-.934-.544 0-.37.392-.647 1.049-.647a3.54 3.54 0 0 1 1.728.474l.53-.97zm32.091-.578a1.623 1.623 0 0 0-1.452.81v-.671H90.44v5.525h1.198v-3.098c0-.913.392-1.421 1.152-1.421.256-.004.51.043.749.138l.368-1.156a2.556 2.556 0 0 0-.852-.15l.023.023zm-15.438 2.89a2.796 2.796 0 0 0 .833 2.096c.559.55 1.323.838 2.105.793a2.874 2.874 0 0 0 1.982-.659l-.577-.97c-.414.316-.919.49-1.44.497a1.772 1.772 0 0 1-1.625-1.769c0-.924.707-1.694 1.625-1.768.521.006 1.026.18 1.44.497l.577-.971a2.874 2.874 0 0 0-1.982-.659 2.777 2.777 0 0 0-2.105.794c-.56.55-.862 1.31-.833 2.096v.023zm11.221 0v-2.751h-1.198v.67a2.088 2.088 0 0 0-1.728-.809 2.885 2.885 0 0 0-2.88 2.89c0 1.596 1.29 2.89 2.88 2.89a2.088 2.088 0 0 0 1.728-.81v.67h1.198v-2.75zm-4.458 0a1.667 1.667 0 0 1 1.724-1.57 1.668 1.668 0 0 1 1.602 1.695 1.667 1.667 0 0 1-2.877 1.126 1.662 1.662 0 0 1-.45-1.251zm-14.459-2.89a2.885 2.885 0 0 0-2.84 2.93 2.885 2.885 0 0 0 2.921 2.85 3.34 3.34 0 0 0 2.287-.752l-.576-.89a2.616 2.616 0 0 1-1.602.578 1.528 1.528 0 0 1-1.647-1.352h4.09v-.463c0-1.733-1.072-2.89-2.615-2.89l-.018-.01zm0 1.075a1.367 1.367 0 0 1 1.394 1.34h-2.88a1.419 1.419 0 0 1 1.463-1.34h.023zm30.018 1.826v-4.981H98.81v2.89a2.088 2.088 0 0 0-1.729-.81 2.885 2.885 0 0 0-2.88 2.89c0 1.596 1.29 2.89 2.88 2.89a2.088 2.088 0 0 0 1.729-.81v.67h1.152v-2.739zm1.998 1.96a.574.574 0 0 1 .398.155.539.539 0 0 1-.179.89.54.54 0 0 1-.219.047.576.576 0 0 1-.518-.336.545.545 0 0 1 .121-.6.576.576 0 0 1 .415-.157h-.018zm0 .976a.408.408 0 0 0 .3-.127.429.429 0 0 0 0-.578.426.426 0 0 0-.3-.127.43.43 0 0 0-.305.127.429.429 0 0 0 0 .578c.04.04.087.071.138.092a.425.425 0 0 0 .185.035h-.018zm.035-.688a.23.23 0 0 1 .15.047c.036.03.055.075.052.121a.139.139 0 0 1-.04.104.201.201 0 0 1-.122.052l.167.19h-.132l-.156-.19h-.051v.19h-.11v-.508l.242-.006zm-.127.099v.138h.127a.12.12 0 0 0 .07 0 .058.058 0 0 0 0-.052.058.058 0 0 0 0-.052.12.12 0 0 0-.07 0l-.127-.034zm-6.336-2.347a1.667 1.667 0 0 1 1.724-1.57 1.668 1.668 0 0 1 1.602 1.696 1.667 1.667 0 0 1-2.876 1.125 1.662 1.662 0 0 1-.45-1.25zm-40.455 0v-2.762h-1.198v.67a2.088 2.088 0 0 0-1.728-.809 2.885 2.885 0 0 0-2.88 2.89 2.885 2.885 0 0 0 2.88 2.89 2.088 2.088 0 0 0 1.728-.81v.67h1.198v-2.739zm-4.459 0a1.667 1.667 0 0 1 1.725-1.57 1.668 1.668 0 0 1 1.602 1.696 1.667 1.667 0 0 1-1.656 1.643 1.65 1.65 0 0 1-1.229-.513 1.662 1.662 0 0 1-.453-1.256h.011z"/><g fill-rule="nonzero"><path fill="#FF5F00" d="M60.765 22.746h18.177v32.926H60.765z"/><path fill="#EB001B" d="M61.919 39.212c-.007-6.426 2.919-12.499 7.934-16.466-8.517-6.747-20.748-5.764-28.097 2.257-7.35 8.022-7.35 20.39 0 28.411 7.349 8.022 19.58 9.005 28.097 2.258-5.014-3.966-7.94-10.036-7.934-16.46z"/><path fill="#F79E1B" d="M103.465 39.212c0 8.017-4.541 15.33-11.695 18.833a20.64 20.64 0 0 1-21.917-2.373c5.011-3.97 7.937-10.039 7.937-16.463a21 21 0 0 0-7.937-16.463 20.64 20.64 0 0 1 21.917-2.373c7.154 3.503 11.695 10.816 11.695 18.833v.006zm-1.985 12.97v-.675h.271v-.14h-.686v.14h.294v.675h.121zm1.333 0v-.814h-.208l-.242.581-.242-.581h-.185v.814h.15v-.61l.225.529h.156l.225-.53v.617l.121-.006z"/></g></g></svg>
