<svg xmlns="http://www.w3.org/2000/svg" xmlns:xlink="http://www.w3.org/1999/xlink" viewBox="0 0 138 88"><defs><path id="a" d="M13.172 14.226H.662V.709h12.51v13.517z"/><path id="c" d="M5.995.451v15.014H.38V.451h5.615z"/><path id="e" d="M0 .65v21.204h18.323V.65H0z"/></defs><g fill="none" fill-rule="evenodd"><path fill="#CCC" fill-rule="nonzero" d="M8 4a4 4 0 0 0-4 4v72a4 4 0 0 0 4 4h122a4 4 0 0 0 4-4V8a4 4 0 0 0-4-4H8zm0-4h122a8 8 0 0 1 8 8v72a8 8 0 0 1-8 8H8a8 8 0 0 1-8-8V8a8 8 0 0 1 8-8z"/><path fill="#253B80" d="M57.145 42.186c-.295 1.94-1.777 1.94-3.21 1.94h-.816l.572-3.623a.45.45 0 0 1 .445-.38h.374c.976 0 1.897 0 2.373.557.283.332.37.825.262 1.506m-.623-5.062h-5.405a.751.751 0 0 0-.743.634l-2.186 13.86a.45.45 0 0 0 .446.52h2.58c.37 0 .685-.269.743-.634l.59-3.739a.75.75 0 0 1 .74-.635H55c3.56 0 5.615-1.722 6.152-5.137.241-1.493.01-2.667-.69-3.489-.768-.903-2.13-1.38-3.94-1.38m12.55 10.037c-.25 1.48-1.424 2.472-2.921 2.472-.752 0-1.352-.241-1.738-.698-.382-.454-.528-1.1-.406-1.819.233-1.466 1.426-2.49 2.9-2.49.735 0 1.333.244 1.726.704.395.465.551 1.115.438 1.831m3.608-5.037H70.09a.45.45 0 0 0-.444.38l-.116.724-.18-.262c-.561-.814-1.81-1.085-3.058-1.085-2.86 0-5.303 2.166-5.779 5.205-.247 1.515.105 2.965.965 3.976.788.93 1.917 1.316 3.26 1.316 2.304 0 3.582-1.481 3.582-1.481l-.115.719a.45.45 0 0 0 .444.521h2.331a.75.75 0 0 0 .743-.635l1.398-8.858a.448.448 0 0 0-.443-.52"/><g transform="translate(73.742 41.415)"><mask id="b" fill="#fff"><use xlink:href="#a"/></mask><path fill="#253B80" d="M12.72.71h-2.6a.755.755 0 0 0-.622.329L5.91 6.323 4.39 1.245A.753.753 0 0 0 3.67.71H1.112a.45.45 0 0 0-.427.596L3.55 9.713.857 13.514a.45.45 0 0 0 .368.712h2.598a.75.75 0 0 0 .617-.323l8.65-12.486a.45.45 0 0 0-.37-.708" mask="url(#b)"/></g><path fill="#179BD7" d="M95.698 42.186c-.295 1.94-1.777 1.94-3.21 1.94h-.816l.574-3.623a.448.448 0 0 1 .443-.38h.375c.974 0 1.896 0 2.373.557.282.332.37.825.261 1.506m-.623-5.062h-5.406a.75.75 0 0 0-.742.634l-2.186 13.86a.45.45 0 0 0 .445.52h2.773a.526.526 0 0 0 .519-.444l.62-3.929a.75.75 0 0 1 .741-.635h1.71c3.561 0 5.616-1.722 6.153-5.137.243-1.493.01-2.667-.69-3.489-.767-.903-2.128-1.38-3.937-1.38m12.547 10.037c-.248 1.48-1.423 2.472-2.92 2.472-.75 0-1.352-.241-1.739-.698-.381-.454-.526-1.1-.405-1.819.235-1.466 1.426-2.49 2.9-2.49.735 0 1.332.244 1.726.704.396.465.553 1.115.438 1.831m3.607-5.037h-2.586a.448.448 0 0 0-.444.38l-.114.724-.182-.262c-.56-.814-1.81-1.085-3.056-1.085-2.86 0-5.303 2.166-5.778 5.205-.247 1.515.103 2.965.963 3.976.79.93 1.917 1.316 3.26 1.316 2.305 0 3.583-1.481 3.583-1.481l-.116.719a.451.451 0 0 0 .446.521h2.33a.75.75 0 0 0 .742-.635l1.4-8.858a.451.451 0 0 0-.448-.52"/><g transform="translate(111.677 36.673)"><mask id="d" fill="#fff"><use xlink:href="#c"/></mask><path fill="#179BD7" d="M2.604.832L.386 14.945a.45.45 0 0 0 .444.52h2.23a.75.75 0 0 0 .742-.634L5.99.97a.45.45 0 0 0-.444-.52H3.048c-.22 0-.41.162-.444.38" mask="url(#d)"/></g><path fill="#253B80" d="M25.743 54.832l.413-2.626-.92-.022h-4.397l3.055-19.372a.254.254 0 0 1 .248-.212h7.413c2.461 0 4.16.512 5.047 1.523.415.473.68.969.808 1.515.134.572.137 1.256.006 2.09l-.01.06v.535l.416.235c.35.186.628.398.842.642.355.405.585.92.682 1.531.1.629.068 1.376-.097 2.223-.19.974-.496 1.822-.91 2.515a5.16 5.16 0 0 1-1.443 1.581c-.55.39-1.203.686-1.942.877-.716.185-1.533.28-2.428.28h-.577c-.413 0-.813.149-1.128.415a1.744 1.744 0 0 0-.588 1.05l-.043.236-.73 4.627-.034.17c-.008.054-.023.08-.046.099a.122.122 0 0 1-.075.028h-3.562z"/><path fill="#179BD7" d="M38.215 37.85c-.022.141-.047.286-.076.434-.977 5.02-4.322 6.754-8.594 6.754H27.37c-.522 0-.962.38-1.044.895l-1.113 7.062-.315 2.002a.556.556 0 0 0 .549.643h3.857a.928.928 0 0 0 .917-.782l.038-.197.726-4.609.047-.253a.928.928 0 0 1 .917-.784h.577c3.737 0 6.663-1.517 7.518-5.908.357-1.834.172-3.366-.773-4.443a3.688 3.688 0 0 0-1.056-.814"/><path fill="#222D65" d="M37.193 37.442a7.711 7.711 0 0 0-.951-.211 12.08 12.08 0 0 0-1.917-.14h-5.81a.923.923 0 0 0-.917.784l-1.236 7.83-.036.228a1.056 1.056 0 0 1 1.044-.895h2.175c4.272 0 7.617-1.735 8.594-6.754.03-.148.054-.293.076-.434a5.211 5.211 0 0 0-.803-.34 7.148 7.148 0 0 0-.22-.068"/><g transform="translate(20 31.14)"><mask id="f" fill="#fff"><use xlink:href="#e"/></mask><path fill="#253B80" d="M7.598 6.735a.924.924 0 0 1 .916-.783h5.81c.689 0 1.331.045 1.918.14a7.711 7.711 0 0 1 1.17.279c.289.095.557.208.804.338.29-1.854-.002-3.117-1.005-4.261C16.105 1.189 14.109.65 11.556.65H4.143c-.522 0-.967.38-1.047.895L.008 21.118a.637.637 0 0 0 .628.736h4.577l1.149-7.29 1.236-7.83z" mask="url(#f)"/></g></g></svg>
