<svg xmlns="http://www.w3.org/2000/svg" viewBox="0 0 138 88"><path d="M8 4C5.8 4 4 5.8 4 8v72c0 2.2 1.8 4 4 4h122c2.2 0 4-1.8 4-4V8c0-2.2-1.8-4-4-4H8zm0-4h122c4.4 0 8 3.6 8 8v72c0 4.4-3.6 8-8 8H8c-4.4 0-8-3.6-8-8V8c0-4.4 3.6-8 8-8z" fill="#ccc"/><path d="M17.5 39.6c0-2.2 2.9-2.3 4.6-.9.6-1.7.6-1.8.6-1.8-4.9-2.4-7.2.8-7.2 2.8 0 4.8 6.8 3.8 5.8 7.1-.4 1.2-2.5 1.9-5 .4-.2.5-.5 1.1-.8 1.8 3.3 1.7 7.6.9 7.8-2.7.2-4.5-5.8-4.2-5.8-6.7zm12.1-3.3v13.2h8.3v-1.7h-6.2v-4.5h4.4v-1.7h-4.4V38h6.2v-1.8l-8.3.1zm19.1.1h-3.6v13.2h2.1v-5c.5 0 1.6 0 2.5-.1 1.2 0 4.4-.6 4.3-4.2-.1-4.1-4.6-3.9-5.3-3.9zm-.1 6.4h-1.4V38h1.2c.5 0 3.7-.2 3.8 2.2.1 2.5-2.4 2.6-3.6 2.6zm56.2-2.7c-.3-3.9-4.1-3.6-4.9-3.7-.7 0-2.2-.1-3.5 0v13.2h2.1V44h2l3.8 5.6h2.5l-4.2-5.9c1-.5 2.3-1.4 2.2-3.6zm-5.1 2.4h-1.3V38h1.1c.5 0 3.2-.2 3.5 2 .3 2.5-2.7 2.5-3.3 2.5zm-31.1-.9h-6.7v-5.2h-2.1v13.2h2.1v-6.3h6.7v6.3h2.1V36.4h-2.1v5.2zM83.5 36c-4.2 0-7 3.1-7 7s2.7 7 7 7c4.2 0 7-3.1 7-7-.1-3.9-2.8-7-7-7zm0 12.1c-3.1 0-4.8-2.3-4.8-5.1s1.8-5.1 4.8-5.1 4.8 2.3 4.8 5.1-1.7 5.1-4.8 5.1zm34.9-11.7H116l-4.3 13.2h2c.6-2.4.9-3.1.9-3.1h5.4c.6 1.8 1.1 3.1 1.1 3.1h2.1l-4.8-13.2zm-3.3 8.6l2.1-6.5 2.2 6.5h-4.3z"/></svg>
