<svg xmlns="http://www.w3.org/2000/svg" viewBox="0 0 138 88" enable-background="new 0 0 138 88"><path d="M8 4C5.8 4 4 5.8 4 8v72c0 2.2 1.8 4 4 4h122c2.2 0 4-1.8 4-4V8c0-2.2-1.8-4-4-4H8zm0-4h122c4.4 0 8 3.6 8 8v72c0 4.4-3.6 8-8 8H8c-4.4 0-8-3.6-8-8V8c0-4.4 3.6-8 8-8z" fill="#ccc"/><g transform="translate(35.488 10.5)"><radialGradient id="a" cx="9.998" cy="55.64" r=".933" gradientTransform="matrix(66.756 0 0 -66.7561 -655.588 3726.103)" gradientUnits="userSpaceOnUse"><stop offset="0" stop-color="#9dd5f6"/><stop offset=".071" stop-color="#98d3f5"/><stop offset=".158" stop-color="#89cef3"/><stop offset=".252" stop-color="#70c6ef"/><stop offset=".351" stop-color="#4ebbea"/><stop offset=".455" stop-color="#23ade3"/><stop offset=".5" stop-color="#0da6e0"/><stop offset="1" stop-color="#2e77bc"/></radialGradient><path d="M66.7.1H.2v66.8h66.5v-22c.3-.4.4-.9.4-1.5 0-.7-.1-1.1-.4-1.5" fill="url(#a)"/><defs><filter id="b" filterUnits="userSpaceOnUse" x=".2" y="23" width="66.5" height="24.4"><feColorMatrix values="1 0 0 0 0 0 1 0 0 0 0 0 1 0 0 0 0 0 1 0"/></filter></defs><mask maskUnits="userSpaceOnUse" x=".2" y="23" width="66.5" height="24.4" id="c"><g filter="url(#b)"><path d="M66.7.1H.2v66.8h66.5v-22c.3-.4.4-.9.4-1.5 0-.7-.1-1.1-.4-1.5" fill="#fff"/></g></mask><path d="M6.1 29l-1.3-3.1L3.6 29h2.5zm28.2-1.2c-.3.2-.6.2-.9.2h-2.3v-1.7h2.3c.3 0 .7 0 .9.1.2.1.4.4.4.7 0 .3-.1.6-.4.7zM50.5 29l-1.3-3.1L48 29h2.5zm-30.2 3.4h-1.9v-6.1l-2.7 6.1h-1.6l-2.7-6.1v6.1H7.5l-.7-1.7H2.9l-.7 1.7h-2l3.3-7.8h2.8L9.5 32v-7.4h3.1l2.4 5.3 2.2-5.3h3.1v7.8zm7.7 0h-6.2v-7.8H28v1.6h-4.4v1.4h4.3v1.6h-4.3v1.6H28v1.6zm8.8-5.7c0 1.2-.8 1.9-1.3 2.1.4.2.8.4.9.7.3.4.3.7.3 1.4v1.5h-1.9v-1c0-.5 0-1.1-.3-1.5-.3-.3-.7-.3-1.4-.3h-2v2.8h-1.9v-7.8h4.3c1 0 1.7 0 2.3.4.6.3 1 .8 1 1.7zm3 5.7h-1.9v-7.8h1.9v7.8zm22.1 0h-2.6l-3.5-5.9v5.9H52l-.7-1.7h-3.9l-.7 1.7h-2.2c-.9 0-2.1-.2-2.7-.9-.7-.7-1-1.6-1-3 0-1.2.2-2.2 1-3.1.6-.6 1.6-.9 2.8-.9h1.8v1.7h-1.8c-.7 0-1.1.1-1.4.5-.3.3-.5 1-.5 1.8s.2 1.4.5 1.8c.3.3.8.4 1.3.4h.8l2.6-6.2h2.8l3.2 7.4v-7.4h2.8L60 30v-5.4h1.9v7.8zM.2 33.9h3.2l.7-1.7h1.6l.7 1.7h6.3v-1.3l.6 1.3h3.3l.6-1.4v1.3h15.6v-2.9h.2c.2 0 .3 0 .3.4v2.5h8.1v-.7c.7.3 1.7.7 3 .7h3.4l.7-1.7h1.6l.7 1.7h6.5v-1.7l1 1.7h5.2V23h-5.2v1.3l-.7-1.3h-5.3v1.3l-.6-1.3h-7.2c-1.2 0-2.3.2-3.1.6V23h-5v.6c-.5-.5-1.3-.6-2.1-.6H16.1l-1.2 2.8-1.3-2.8H7.9v1.3L7.3 23H2.4L.1 28.2l.1 5.7zm66.5 5.8h-3.4c-.3 0-.6 0-.8.1-.2.1-.3.3-.3.6s.2.5.4.6c.2.1.4.1.7.1h1c1 0 1.7.2 2.1.6l.2.2v-2.2zm0 5.2c-.5.7-1.3 1-2.5 1h-3.6v-1.7h3.6c.4 0 .6 0 .8-.2.1-.1.2-.3.2-.5s-.1-.4-.2-.5c-.1-.1-.3-.2-.7-.2-1.8-.1-3.9.1-3.9-2.4 0-1.1.7-2.3 2.7-2.3h3.7v-1.6h-3.5c-1 0-1.8.3-2.3.6v-.6h-5.1c-.8 0-1.8.2-2.2.6v-.6h-9.1v.6c-.7-.5-2-.6-2.5-.6h-6v.6c-.6-.6-1.9-.6-2.6-.6h-6.7l-1.5 1.7-1.4-1.7H13.4v10.9h9.9l1.6-1.7 1.5 1.7h6.1v-2.6h.5c.8 0 1.8 0 2.6-.4v2.9h5v-2.8h.2c.3 0 .3 0 .3.3v2.5h15.3c1 0 2-.2 2.5-.7v.7h4.8c1 0 2-.1 2.7-.5v-1.9zm-7.5-3.2c.4.4.6.9.6 1.7 0 1.7-1.1 2.5-2.9 2.5h-3.6v-1.7h3.6c.4 0 .6 0 .8-.2.1-.1.2-.3.2-.5s-.1-.4-.2-.5c-.1-.1-.3-.2-.7-.2-1.7-.1-3.9.1-3.9-2.4 0-1.1.7-2.3 2.7-2.3h3.7v1.7H56c-.3 0-.6 0-.7.1-.2.1-.3.3-.3.6s.2.5.4.6c.2.1.4.1.7.1h1c1-.1 1.7.1 2.1.5zm-16.9-.4c-.3.1-.6.2-.9.2h-2.3v-1.8h2.3c.3 0 .7 0 .9.1.2.1.4.4.4.7s-.1.6-.4.8zm1.2.9c.4.2.8.4.9.7.3.4.3.7.3 1.4v1.6h-1.9v-1c0-.5 0-1.2-.3-1.5-.3-.3-.7-.3-1.4-.3h-2V46h-1.9v-8h4.3c.9 0 1.6 0 2.2.4.6.4 1 .8 1 1.7.1 1.3-.7 1.9-1.2 2.1zm2.3-4.2H52v1.6h-4.4V41H52v1.6h-4.3v1.6h4.4v1.6h-6.2V38h-.1zm-12.6 3.7h-2.4v-2h2.4c.7 0 1.1.3 1.1 1 .1.6-.4 1-1.1 1zm-4.3 3.5L26.1 42l2.9-3.1v6.3zm-7.4-1h-4.6v-1.6H21V41h-4.1v-1.4h4.7l2 2.3-2.1 2.3zm14.9-3.6c0 2.2-1.6 2.6-3.3 2.6h-2.3v2.6h-3.6l-2.3-2.6-2.4 2.6h-7.4V38h7.5l2.3 2.6 2.4-2.6h6c1.4 0 3.1.5 3.1 2.6z" mask="url(#c)" fill="#fff"/></g></svg>