<svg xmlns="http://www.w3.org/2000/svg" viewBox="0 0 138 88"><g fill="none" fill-rule="evenodd"><path fill="#CCC" fill-rule="nonzero" d="M8 4a4 4 0 0 0-4 4v72a4 4 0 0 0 4 4h122a4 4 0 0 0 4-4V8a4 4 0 0 0-4-4H8zm0-4h122a8 8 0 0 1 8 8v72a8 8 0 0 1-8 8H8a8 8 0 0 1-8-8V8a8 8 0 0 1 8-8z"/><path fill="#000" fill-rule="nonzero" d="M18 37.363h5.808a9.154 9.154 0 0 1 2.811.434 6.89 6.89 0 0 1 2.394 1.32 6.465 6.465 0 0 1 1.666 2.228c.436.994.65 2.07.624 3.155a6.633 6.633 0 0 1-.72 3.175 6.844 6.844 0 0 1-1.851 2.218 7.984 7.984 0 0 1-2.519 1.31 9.061 9.061 0 0 1-2.717.434H18V37.363zm4.58 11.976a9.59 9.59 0 0 0 2.32-.273 5.608 5.608 0 0 0 1.906-.847 4.059 4.059 0 0 0 1.28-1.492c.33-.695.491-1.459.468-2.228a5.388 5.388 0 0 0-.416-2.217 3.873 3.873 0 0 0-1.155-1.501 4.883 4.883 0 0 0-1.749-.847 8.501 8.501 0 0 0-2.217-.273h-2.394v9.677h1.957zm11.158-11.976h2.623v14.275h-2.623V37.363zm13.073 3.064a2.408 2.408 0 0 0-1.114-.856 4 4 0 0 0-2.352-.17 2.446 2.446 0 0 0-.77.322 1.71 1.71 0 0 0-.552.574 1.617 1.617 0 0 0-.208.837c-.025.433.17.85.52 1.109.397.28.831.505 1.29.665.514.188 1.076.37 1.687.546.592.166 1.159.41 1.686.725.515.311.956.73 1.29 1.229.375.611.556 1.32.521 2.036a4.358 4.358 0 0 1-.437 2.006 4.112 4.112 0 0 1-1.176 1.421 5.15 5.15 0 0 1-1.718.847c-.67.19-1.364.285-2.06.282a7.957 7.957 0 0 1-2.644-.444 5.095 5.095 0 0 1-2.186-1.491l1.978-1.855c.317.468.75.847 1.259 1.099a3.631 3.631 0 0 0 2.571.272c.295-.077.576-.2.833-.363.245-.157.451-.367.603-.614.156-.259.235-.556.23-.857a1.47 1.47 0 0 0-.521-1.21 4.626 4.626 0 0 0-1.29-.716 21.196 21.196 0 0 0-1.687-.555 7.206 7.206 0 0 1-1.686-.716 4.044 4.044 0 0 1-1.29-1.21 3.515 3.515 0 0 1-.521-2.026 3.75 3.75 0 0 1 .468-1.915c.306-.53.725-.988 1.228-1.34a5.435 5.435 0 0 1 1.739-.797 7.69 7.69 0 0 1 4.257.08c.73.23 1.401.616 1.967 1.13l-1.915 1.955zm14.842.283a3.997 3.997 0 0 0-3.101-1.411 5.25 5.25 0 0 0-2.072.393c-.6.25-1.142.62-1.592 1.088a4.92 4.92 0 0 0-1.03 1.623 5.412 5.412 0 0 0-.365 1.996 5.966 5.966 0 0 0 .364 2.117c.228.62.578 1.189 1.03 1.672.45.474.992.851 1.593 1.109a5.14 5.14 0 0 0 2.072.403 3.91 3.91 0 0 0 1.738-.413 4.708 4.708 0 0 0 1.571-1.32l2.165 1.491a5.863 5.863 0 0 1-2.434 1.936 7.81 7.81 0 0 1-3.06.604 8.865 8.865 0 0 1-3.133-.534 7.185 7.185 0 0 1-2.457-1.512 6.94 6.94 0 0 1-1.61-2.349c-.4-.965-.598-2-.584-3.044a8.032 8.032 0 0 1 .583-3.115 6.976 6.976 0 0 1 1.611-2.388 7.105 7.105 0 0 1 2.457-1.522 8.865 8.865 0 0 1 3.132-.532 7.387 7.387 0 0 1 2.779.514c.919.39 1.735.987 2.383 1.744l-2.04 1.45zm19.776-3.347h3.017l4.018 10.786 4.144-10.786h2.831l-5.954 14.275h-2.269L81.43 37.363zm15.592 0h9.763v2.3h-7.14v3.508h6.765v2.298h-6.765v3.87h7.515v2.3H97.02V37.362zm12.72 0h5.121a10.84 10.84 0 0 1 2.05.192 5.356 5.356 0 0 1 1.76.655c.51.305.932.736 1.228 1.25a4.392 4.392 0 0 1-.427 4.597 3.836 3.836 0 0 1-2.53 1.27l3.914 6.311h-3.164l-3.414-6.048h-1.916v6.048h-2.623V37.363zm4.663 6.048c.375 0 .75-.016 1.124-.05.353-.029.7-.11 1.028-.242.304-.12.567-.323.76-.585a1.81 1.81 0 0 0 .292-1.098 1.713 1.713 0 0 0-.27-1.009 1.672 1.672 0 0 0-.709-.574 3.344 3.344 0 0 0-.968-.252 9.04 9.04 0 0 0-1.028-.06h-2.27v3.87h2.04z"/><path fill="#EF7717" d="M73.714 37a7.5 7.5 0 0 1 7.5 7.5 7.5 7.5 0 0 1-7.5 7.5 7.5 7.5 0 0 1-7.5-7.5 7.5 7.5 0 0 1 7.5-7.5z"/><path fill="#F18A1B" d="M68 84h66V48s-14.246 25.366-66 36z"/></g></svg>
