<svg xmlns="http://www.w3.org/2000/svg" xmlns:xlink="http://www.w3.org/1999/xlink" viewBox="0 0 138 88"><defs><path id="a" d="M50.707 22.208c-.056-4.448 3.925-6.93 6.924-8.407 3.081-1.514 4.116-2.485 4.104-3.84C61.712 7.89 59.277 6.974 57 6.938c-3.975-.062-6.286 1.084-8.123 1.951l-1.432-6.768C49.287 1.263 52.7.515 56.24.482c8.309 0 13.745 4.143 13.774 10.566.032 8.152-11.163 8.603-11.087 12.247.027 1.105 1.07 2.284 3.358 2.584 1.132.151 4.257.267 7.8-1.381l1.39 6.548c-1.905.701-4.354 1.372-7.403 1.372-7.82 0-13.32-4.199-13.365-10.21m34.13 9.646c-1.516 0-2.795-.894-3.366-2.266L69.603.963h8.302l1.652 4.612h10.146l.959-4.612h7.317l-6.385 30.891h-6.756m1.16-8.345l2.397-11.6h-6.562l4.166 11.6M40.64 31.854L34.096.964h7.912l6.541 30.89h-7.908m-11.705 0l-8.234-21.025-3.332 17.877c-.39 1.996-1.934 3.148-3.648 3.148H.26l-.188-.897c2.763-.606 5.903-1.583 7.805-2.628 1.164-.639 1.497-1.197 1.879-2.714L16.066.963h8.36l12.819 30.891h-8.309"/><linearGradient id="c" x1="16.148%" x2="85.832%" y1="34.401%" y2="66.349%"><stop offset="0%" stop-color="#222357"/><stop offset="100%" stop-color="#254AA5"/></linearGradient></defs><g fill="none" fill-rule="evenodd"><path fill="#CCC" fill-rule="nonzero" d="M8 4a4 4 0 0 0-4 4v72a4 4 0 0 0 4 4h122a4 4 0 0 0 4-4V8a4 4 0 0 0-4-4H8zm0-4h122a8 8 0 0 1 8 8v72a8 8 0 0 1-8 8H8a8 8 0 0 1-8-8V8a8 8 0 0 1 8-8z"/><g transform="matrix(1 0 0 -1 18 60.667)"><mask id="b" fill="#fff"><use xlink:href="#a"/></mask><g mask="url(#b)"><path fill="url(#c)" fill-rule="nonzero" transform="translate(-10.181 -31.78)" d="M0 60.384L96.468 96.27l21.946-60.195L21.947.189"/></g></g></g></svg>
